<svg xmlns="http://www.w3.org/2000/svg" xmlns:xlink="http://www.w3.org/1999/xlink" viewBox="0 0 604 168.1"><defs><style>.cls-1{fill:url(#linear-gradient);}.cls-2{fill:url(#linear-gradient-2);}.cls-3{fill:url(#linear-gradient-3);}.cls-4{fill:url(#linear-gradient-4);}.cls-5{fill:url(#linear-gradient-5);}.cls-6{fill:url(#linear-gradient-6);}.cls-7{fill:url(#linear-gradient-7);}.cls-8{fill:url(#linear-gradient-8);}.cls-9{fill:#316c9f;}.cls-10{fill:#4db9e8;}.cls-11{fill:#fff;}</style><linearGradient id="linear-gradient" x1="26.42" y1="145.79" x2="123.88" y2="33.92" gradientUnits="userSpaceOnUse"><stop offset="0.3" stop-color="#7e00b1"/><stop offset="0.57" stop-color="#ff1663"/><stop offset="0.79" stop-color="#ff5048"/><stop offset="0.93" stop-color="#ff6140"/></linearGradient><linearGradient id="linear-gradient-2" y1="110.4" x2="66.21" y2="110.4" gradientUnits="userSpaceOnUse"><stop offset="0.1" stop-color="#4b0093"/><stop offset="0.6" stop-color="#ad00b4"/><stop offset="0.8" stop-color="#d400c2"/><stop offset="1" stop-color="#e400ba"/></linearGradient><linearGradient id="linear-gradient-3" x1="20.57" y1="16.17" x2="150.95" y2="16.17" xlink:href="#linear-gradient-2"/><linearGradient id="linear-gradient-4" x1="95.63" y1="115.78" x2="170" y2="115.78" xlink:href="#linear-gradient-2"/><linearGradient id="linear-gradient-5" x1="26.34" y1="90.91" x2="116.56" y2="22.05" gradientUnits="userSpaceOnUse"><stop offset="0.2" stop-color="#610088"/><stop offset="0.48" stop-color="#d61354"/><stop offset="0.6" stop-color="#d6005d"/><stop offset="0.7" stop-color="#d62d47"/><stop offset="1" stop-color="#d63842"/></linearGradient><linearGradient id="linear-gradient-6" x1="51.71" y1="136.49" x2="136.59" y2="90.66" xlink:href="#linear-gradient"/><linearGradient id="linear-gradient-7" x1="33.23" y1="75.56" x2="175.36" y2="16.42" gradientUnits="userSpaceOnUse"><stop offset="0.3" stop-color="#71009f"/><stop offset="0.52" stop-color="#ed145c"/><stop offset="0.6" stop-color="#ed0066"/><stop offset="0.77" stop-color="#ed324e"/><stop offset="0.86" stop-color="#ed3d49"/><stop offset="0.97" stop-color="#ed4a43"/><stop offset="1" stop-color="#ed5a3c"/></linearGradient><linearGradient id="linear-gradient-8" x1="42.93" y1="95.18" x2="131.07" y2="95.18" gradientUnits="userSpaceOnUse"><stop offset="0.3" stop-color="#5d0084"/><stop offset="0.52" stop-color="#d21252"/><stop offset="0.6" stop-color="#d2005a"/><stop offset="0.77" stop-color="#d22d45"/><stop offset="0.86" stop-color="#d23640"/><stop offset="0.97" stop-color="#d2423b"/><stop offset="1" stop-color="#d25034"/></linearGradient></defs><g id="Layer_2" data-name="Layer 2"><g id="Layer_1-2" data-name="Layer 1"><path class="cls-1" d="M87.7,91.9h-9a5.3,5.3,0,0,0-4.2,1.5A4.9,4.9,0,0,0,73,97.1V112a16.4,16.4,0,0,1-6.3,13,16,16,0,0,1-9.9,3.4H53.1c-.6,0-.8-.1-.8-.8V92.4a20.9,20.9,0,0,1,3.1-9.7,17.7,17.7,0,0,1,10.8-8.3,34.4,34.4,0,0,1,5.6-.9h15a53.4,53.4,0,0,0,6.2-.7A20.8,20.8,0,0,0,109,58a33,33,0,0,0,1.2-8.9,1.2,1.2,0,0,1,.2-.8,22.9,22.9,0,0,1,5.1,10.2,37,37,0,0,1,.7,5.7c0,.6-.1,2.3-.2,3a20.6,20.6,0,0,1-3.6,10,25.5,25.5,0,0,1-4.1,4.6,9.2,9.2,0,0,1-2.8,2.4,39.4,39.4,0,0,1-13.6,7.1,14.3,14.3,0,0,1-3.5.6Z"/><path class="cls-2" d="M66.1,167.7a75.9,75.9,0,0,1-10.7-2.6,71.8,71.8,0,0,1-23.6-13A87.9,87.9,0,0,1,6.2,116,90.4,90.4,0,0,1,.6,93.8,87.5,87.5,0,0,1,.1,79.3,71.6,71.6,0,0,1,6.2,53.6l.3-.5c7.2,12.9,14.3,25.7,21,38.7h-.2l-.6-.4-8.9-7.7c-.3-.3-.4-.3-.6.2a42.2,42.2,0,0,0-2.3,18,61.6,61.6,0,0,0,7.6,24.4,92.2,92.2,0,0,0,21.2,26.1,110.3,110.3,0,0,0,22.5,15C66.2,167.7,66.2,167.7,66.1,167.7Z"/><path class="cls-3" d="M20.6,29.4a68.2,68.2,0,0,1,10.1-10A77.3,77.3,0,0,1,56.1,4.9,84.7,84.7,0,0,1,74,.7,97.2,97.2,0,0,1,91.9.2,77.2,77.2,0,0,1,122,8.4a86.2,86.2,0,0,1,18.6,13,110,110,0,0,1,10,10.5l.4.4c-14.6,0-29-.1-43.5-.7l11.6-5c-1.4-1.2-2.8-2.4-4.3-3.5A70.2,70.2,0,0,0,87.2,10.8,69.2,69.2,0,0,0,60,10.5c-11.9,2.2-22.7,7.2-32.6,14-2.3,1.6-4.4,3.3-6.6,4.9C20.7,29.5,20.6,29.5,20.6,29.4Z"/><path class="cls-4" d="M115.3,145.4l2.5-.9a68,68,0,0,0,27-17.7,77.7,77.7,0,0,0,13.8-21.1,80.1,80.1,0,0,0,6.6-23.4,86.1,86.1,0,0,0,.2-18.3,1.1,1.1,0,0,1,.1-.5l.7,1.5A49.3,49.3,0,0,1,170,86.8c-.5,11.5-3.8,22.3-8.9,32.6a100.6,100.6,0,0,1-26.3,33.7,72.6,72.6,0,0,1-20,11.9,48.1,48.1,0,0,1-19.2,3c7.7-12.3,15.3-24.5,23.2-36.5h.2l-1.8,6.9C116.6,140.7,116,143,115.3,145.4Z"/><path class="cls-5" d="M72.9,61c0,.3-.1.5-.1.7V72.9c.1.6-.2.7-.7.7a21.5,21.5,0,0,0-11,3.1,19.1,19.1,0,0,0-6.7,8.2,25.7,25.7,0,0,0-2,7.2c0,.1,0,.2-.1.2v-40a14.1,14.1,0,0,1,12-13.7,22.9,22.9,0,0,1,3.7-.1,26.9,26.9,0,0,1,5.6,2.1A50.7,50.7,0,0,1,84,46.5a30.9,30.9,0,0,1,8.8,9.2,18.6,18.6,0,0,1,2.6,6.9c0,.3.1,1.1-.3,1.3s-.2-.9-.3-1.2A6.9,6.9,0,0,0,88,58H76.6C73.9,58,73,60.7,72.9,61Z"/><path class="cls-6" d="M93.5,108.6a29.8,29.8,0,0,0,6.7-1.6,18,18,0,0,0,11.4-11.1,27.6,27.6,0,0,0,1.4-7.5,13.6,13.6,0,0,0,.2-2,.4.4,0,0,1,.2-.5,22.4,22.4,0,0,1,4.9,8.6,28.1,28.1,0,0,1,1,9.6,24.9,24.9,0,0,1-5.5,14,27.2,27.2,0,0,1-13.2,8.6,33,33,0,0,1-9.9,1.5c-2,0-4,.1-6,0a6.8,6.8,0,0,1-6.6-6.7,1.3,1.3,0,0,1-.1-.6V109.7c0-.6.2-.7.7-.7H89.3Z"/><path class="cls-7" d="M93.8,58a26.5,26.5,0,0,0-6.3-8.5A46.4,46.4,0,0,0,78.1,43a62.3,62.3,0,0,0-9.9-4.4h.2c7.2,0,14.4-.3,21.6.1s15.1,3.3,20.4,9.6A32.9,32.9,0,0,1,108.8,59a20.5,20.5,0,0,1-14,13.4,21,21,0,0,1-4.2.9,2.9,2.9,0,0,1-1.3,0h.6c3.5-1.1,5.8-4.6,5.3-8.9C95.1,64,94.6,59.7,93.8,58Z"/><path class="cls-8" d="M113.4,85.9a37.4,37.4,0,0,1-1,8.1c-1.9,7.1-6.5,11.6-13.6,13.7a45.2,45.2,0,0,1-5.6,1c6.7-2.4,6.6-10.9,3.3-14.3a8.1,8.1,0,0,0-6-2.6H88.4a28.8,28.8,0,0,0,7.1-2A47.7,47.7,0,0,0,108,81.9l.3-.2A25.9,25.9,0,0,1,113.4,85.9Z"/><path class="cls-9" d="M20.6,29.4h.2c-.1.1-.2.4-.4.3S20.5,29.5,20.6,29.4Z"/><path class="cls-10" d="M63.7,167.7v-.2c.2.1.3.1.4.3Z"/><path class="cls-11" d="M604,121.3H554.9c-.4.1-.5-.1-.5-.4V47.7c0-1-.1-.9.9-.9h14c.9,0,.9,0,.9.8v58.1a.4.4,0,0,0,.4.4H604Z"/><path class="cls-11" d="M407.8,77.5v43.3c.1.4-.1.5-.5.5H393.1c-.4,0-.6-.1-.6-.6.1-3.9,0-7.9,0-11.9V47.7c0-1,0-.9.9-.9h11.2a.9.9,0,0,1,.9.5L424,74l6.2,9c.3.4.3.4.6-.1l22.2-32c.8-1.3,1.6-2.5,2.5-3.7a.8.8,0,0,1,.8-.4h11.5c.5,0,.6.1.6.6v73c0,1,.1.9-.9.9H454c-1,0-.9.1-.9-.9v-43l-.9,1.2-21.3,30.8c-.4.7-.4.7-.9,0L419.5,94.2,408.1,77.8l-.2-.3Z"/><path class="cls-11" d="M365.9,91.7c.1-.2,0-.5,0-.7V47.4c0-.5.1-.6.6-.6h14c.7,0,.7,0,.7.7v73.2c.1.5-.1.6-.6.6H368.1a.8.8,0,0,1-.9-.4L357,107.5,333.7,76.8c-.1-.1-.2-.3-.4-.3s0,.4,0,.6v43.6c0,.5-.1.6-.6.6h-14c-.7,0-.7,0-.7-.7V47.4c-.1-.5.1-.6.6-.6h12.5a1,1,0,0,1,.9.4l9.9,13,23.6,31.1Z"/><path class="cls-11" d="M194.8,84V47.3c0-.4.1-.5.5-.5h23.1a20.7,20.7,0,0,1,11.5,3.5A15.6,15.6,0,0,1,237,62a16.2,16.2,0,0,1-3.4,12.4l-.5.6c-.4.4-.4.4.1.6a19.8,19.8,0,0,1,5.2,2.7A20.9,20.9,0,0,1,247,92.2a27.2,27.2,0,0,1-4.2,19.8,20.5,20.5,0,0,1-13.9,9.1,21.7,21.7,0,0,1-3.6.2H195.5c-.7,0-.7,0-.7-.7Zm15.3,12v9.3c0,.7,0,.7.7.7h12.3a9.3,9.3,0,0,0,6.6-4.6,10.2,10.2,0,0,0-.7-11.6,9.6,9.6,0,0,0-7.8-3.5H210.7c-.5,0-.6.1-.6.6Zm0-29v5.2c0,.5.2.6.6.6h6.1a4,4,0,0,0,2.9-1.2,6.8,6.8,0,0,0,0-9.1,3.7,3.7,0,0,0-3-1.3h-6c-.5,0-.6.2-.6.7Z"/><path class="cls-11" d="M257.2,84V47.2c0-.3.1-.4.4-.4h48.2c.8,0,.8,0,.8.8V61.3c0,.8,0,.8-.8.8H273.3c-.8,0-.8,0-.8.7V76.3c0,.7,0,.7.7.7h31.3c.8,0,.8,0,.8.8V90.3c0,.8,0,.8-.8.8H273.3c-.8,0-.8,0-.8.8v13.5c0,.5.1.7.7.7h32.6c.8,0,.8,0,.8.8v13.6c0,.8,0,.8-.8.8H258c-.8,0-.8,0-.8-.7Z"/><path class="cls-11" d="M504.2,109.7V98.9a4.3,4.3,0,0,0-.2-1.1L478.8,47.6c-.4-.8-.4-.8.5-.8h15.6c.5,0,.7.2,1,.6l15.6,31.2h0c.1.2.2.5.4.5s.2-.3.3-.5l9.6-19.2,6.1-12.1a.9.9,0,0,1,1-.6h15.7c.7,0,.7,0,.4.7L519.8,97.7a3.5,3.5,0,0,0-.3,1.3v21.6c0,.7,0,.7-.7.7H504.9c-.7,0-.7,0-.7-.6Z"/></g></g></svg>