<?xml version="1.0" encoding="utf-8"?>
<!-- Generator: Adobe Illustrator 27.5.0, SVG Export Plug-In . SVG Version: 6.00 Build 0)  -->
<svg version="1.1" id="Layer_1" xmlns="http://www.w3.org/2000/svg" xmlns:xlink="http://www.w3.org/1999/xlink" x="0px" y="0px"
	 viewBox="0 0 1420 800" style="enable-background:new 0 0 1420 800;" xml:space="preserve">
<g>
	<defs>
		<rect id="SVGID_1_" width="1420" height="800"/>
	</defs>
	<clipPath id="SVGID_00000080177907398664685180000010129647058433295767_">
		<use xlink:href="#SVGID_1_"  style="overflow:visible;"/>
	</clipPath>
	<g style="clip-path:url(#SVGID_00000080177907398664685180000010129647058433295767_);">
		
			<rect x="-65.296" y="-12" transform="matrix(0.7071 -0.7071 0.7071 0.7071 1.3728 19.3136)" style="fill:#EFEFEF;" width="178.593" height="40"/>
		<polygon style="fill:#EFEFEF;" points="1249,126.716 1347,28.716 1375.284,57 1277.284,155 1179.284,253 1179.284,253 
			1081.284,351 1053,379.284 955,477.284 926.716,449 1024.716,351 926.716,253 955,224.716 1053,322.716 1122.716,253 
			1220.716,155 1220.716,155 1151,85.284 1053,183.284 1024.716,155 1122.716,57 1151,28.716 1249,-69.284 1277.284,-41 
			1179.284,57 		"/>
		<polygon style="fill:#EFEFEF;" points="955,85.284 857,183.284 828.716,155 926.716,57 955,28.716 1053,-69.284 1081.284,-41 
			983.284,57 		"/>
		<polygon style="fill:#EFEFEF;" points="269,85.284 171,183.284 142.716,155 240.716,57 269,28.716 367,-69.284 395.284,-41 
			297.284,57 		"/>
		<polygon style="fill:#EFEFEF;" points="73,28.716 171,-69.284 199.284,-41 101.284,57 73,85.284 -25,183.284 -53.284,155 
			44.716,57 		"/>
		<path style="fill:#EFEFEF;" d="M44.716,155L73,126.716L142.716,57L171,28.716l98-98L297.284-41l-98,98L171,85.284L101.284,155v0
			L171,224.716L240.716,155v0l98-98L367,28.716L436.716-41L465-69.284L493.284-41L563,28.716L632.716-41L661-69.284L689.284-41
			L759,28.716l98-98L885.284-41l-98,98L759,85.284L689.284,155l-98,98l0,0L563,281.284L534.716,253l0,0l-98-98L465,126.716
			L534.716,57L465-12.716L395.284,57L367,85.284L297.284,155l-98,98v0L171,281.284L101.284,351L73,379.284L3.284,449L73,518.716
			L101.284,547L73,575.284l-98,98L-53.284,645l98-98L-25,477.284L-53.284,449L-25,420.716L44.716,351L73,322.716L142.716,253v0
			L73,183.284l-98,98L-53.284,253L44.716,155L44.716,155z M730.716,57L661-12.716L591.284,57L661,126.716L730.716,57z M493.284,155
			L563,224.716L632.716,155l0,0L563,85.284L493.284,155z"/>
		
			<rect x="620.704" y="282" transform="matrix(0.7071 -0.7071 0.7071 0.7071 -5.5922 590.4996)" style="fill:#EFEFEF;" width="178.593" height="40"/>
		
			<rect x="-65.296" y="282" transform="matrix(0.7071 -0.7071 0.7071 0.7071 -206.517 105.4244)" style="fill:#EFEFEF;" width="178.593" height="40"/>
		
			<rect x="1306.704" y="380" transform="matrix(0.7071 -0.7071 0.7071 0.7071 126.036 1104.2784)" style="fill:#EFEFEF;" width="178.593" height="40"/>
		<polygon style="fill:#EFEFEF;" points="240.716,351 269,322.716 367,224.716 395.284,253 297.284,351 269,379.284 171,477.284 
			142.716,449 		"/>
		<polygon style="fill:#EFEFEF;" points="1053,518.716 1122.716,449 1151,420.716 1220.716,351 1249,322.716 1347,224.716 
			1375.284,253 1277.284,351 1249,379.284 1179.284,449 1151,477.284 1081.284,547 1053,575.284 983.284,645 955,673.284 
			857,771.284 828.716,743 926.716,645 955,616.716 1024.716,547 		"/>
		<polygon style="fill:#EFEFEF;" points="661,518.716 730.716,449 759,420.716 857,322.716 885.284,351 787.284,449 759,477.284 
			689.284,547 661,575.284 591.284,645 563,673.284 465,771.284 436.716,743 534.716,645 563,616.716 632.716,547 		"/>
		<path style="fill:#EFEFEF;" d="M73,616.716L142.716,547L73,477.284L44.716,449L73,420.716L142.716,351L171,322.716L240.716,253
			l98-98v0L367,126.716l98-98L493.284,57l-98,98v0l98,98L563,322.716L632.716,253l98-98l0,0L759,126.716L828.716,57L857,28.716
			l98-98L983.284-41l-98,98L857,85.284L787.284,155l0,0L857,224.716L926.716,155l0,0L955,126.716L1024.716,57L1053,28.716l98-98
			L1179.284-41l-98,98L1053,85.284L983.284,155l0,0L1053,224.716l98-98L1179.284,155l-98,98l0,0L1053,281.284L1024.716,253l0,0
			L955,183.284L885.284,253l0,0L955,322.716L983.284,351L955,379.284L885.284,449L955,518.716L1024.716,449L1053,420.716
			L1122.716,351L1151,322.716L1220.716,253l98-98l0,0L1347,126.716L1416.716,57L1347-12.716l-98,98L1220.716,57l98-98L1347-69.284
			L1375.284-41L1445,28.716L1473.284,57L1445,85.284L1375.284,155l0,0l98,98L1445,281.284L1375.284,351L1347,379.284L1277.284,449
			L1347,518.716l98-98L1473.284,449l-98,98L1347,575.284l-98,98L1220.716,645l98-98L1249,477.284L1179.284,547L1151,575.284
			L1081.284,645L1053,673.284L983.284,743L955,771.284L885.284,841L857,869.284L828.716,841L759,771.284l-98,98L632.716,841l98-98
			L759,714.716L828.716,645L857,616.716L926.716,547L857,477.284L787.284,547L759,575.284L689.284,645L661,673.284L591.284,743
			L563,771.284L493.284,841L465,869.284L436.716,841L367,771.284l-98,98L240.716,841l98-98L367,714.716L436.716,645L465,616.716
			L534.716,547L465,477.284L436.716,449L465,420.716L534.716,351L465,281.284L395.284,351L367,379.284L297.284,449L269,477.284
			L199.284,547L171,575.284L101.284,645L73,673.284l-98,98L-53.284,743l98-98L73,616.716z M885.284,645L857,673.284L787.284,743
			L857,812.716L926.716,743L955,714.716L1024.716,645L1053,616.716L1122.716,547L1151,518.716L1220.716,449L1249,420.716
			L1318.716,351L1347,322.716L1416.716,253L1347,183.284L1277.284,253l0,0l-98,98L1151,379.284L1081.284,449L1053,477.284
			L983.284,547L955,575.284L885.284,645z M759,183.284L689.284,253l0,0l-98,98L661,420.716L730.716,351L759,322.716L828.716,253l0,0
			L759,183.284z M493.284,645L465,673.284L395.284,743L465,812.716L534.716,743L563,714.716L632.716,645L661,616.716L730.716,547
			L759,518.716L828.716,449L857,420.716L926.716,351L857,281.284L787.284,351L759,379.284L689.284,449L661,477.284L591.284,547
			L563,575.284L493.284,645z M493.284,449L563,518.716L632.716,449L563,379.284L493.284,449z M240.716,449L269,420.716L338.716,351
			L367,322.716L436.716,253l0,0L367,183.284L297.284,253v0l-98,98L171,379.284L101.284,449L171,518.716L240.716,449z"/>
		
			<rect x="1306.704" y="772" transform="matrix(0.7071 -0.7071 0.7071 0.7071 -151.1498 1219.0925)" style="fill:#EFEFEF;" width="178.593" height="40"/>
		<polygon style="fill:#EFEFEF;" points="1347,714.716 1445,616.716 1473.284,645 1375.284,743 1347,771.284 1249,869.284 
			1220.716,841 1318.716,743 		"/>
		
			<rect x="1012.704" y="772" transform="matrix(0.7071 -0.7071 0.7071 0.7071 -237.2604 1011.2032)" style="fill:#EFEFEF;" width="178.593" height="40"/>
		<polygon style="fill:#EFEFEF;" points="1053,714.716 1122.716,645 1151,616.716 1249,518.716 1277.284,547 1179.284,645 
			1249,714.716 1318.716,645 1347,616.716 1445,518.716 1473.284,547 1375.284,645 1347,673.284 1277.284,743 1249,771.284 
			1151,869.284 1122.716,841 1220.716,743 1151,673.284 1081.284,743 1053,771.284 955,869.284 926.716,841 1024.716,743 		"/>
		<polygon style="fill:#EFEFEF;" points="661,714.716 730.716,645 759,616.716 857,518.716 885.284,547 787.284,645 759,673.284 
			689.284,743 661,771.284 563,869.284 534.716,841 632.716,743 		"/>
		<polygon style="fill:#EFEFEF;" points="171,714.716 240.716,645 269,616.716 367,518.716 395.284,547 297.284,645 269,673.284 
			199.284,743 171,771.284 73,869.284 44.716,841 142.716,743 		"/>
		<polygon style="fill:#EFEFEF;" points="73,714.716 142.716,645 171,616.716 240.716,547 269,518.716 338.716,449 367,420.716 
			465,322.716 493.284,351 395.284,449 465,518.716 493.284,547 465,575.284 395.284,645 367,673.284 297.284,743 269,771.284 
			171,869.284 142.716,841 240.716,743 269,714.716 338.716,645 367,616.716 436.716,547 367,477.284 297.284,547 269,575.284 
			199.284,645 171,673.284 101.284,743 73,771.284 -25,869.284 -53.284,841 44.716,743 		"/>
	</g>
</g>
</svg>
